<mxfile host="app.diagrams.net" modified="2024-05-21T13:40:30.482Z" agent="Mozilla/5.0 (Windows NT 10.0; Win64; x64; rv:126.0) Gecko/20100101 Firefox/126.0" etag="dPw-sfjJEinoEt61k41I" version="24.4.4" type="github">
  <diagram name="Page-1" id="JIRIjCkc2eHKuGLTyx-l">
    <mxGraphModel dx="1434" dy="-1564" grid="1" gridSize="10" guides="1" tooltips="1" connect="1" arrows="1" fold="1" page="1" pageScale="1" pageWidth="827" pageHeight="1169" math="0" shadow="0">
      <root>
        <mxCell id="0" />
        <mxCell id="1" parent="0" />
        <mxCell id="0ipz06AKfEBxF18oT8nj-1" value="" style="edgeStyle=orthogonalEdgeStyle;rounded=0;orthogonalLoop=1;jettySize=auto;html=1;exitX=1;exitY=0.5;exitDx=0;exitDy=0;" parent="1" source="0ipz06AKfEBxF18oT8nj-19" target="0ipz06AKfEBxF18oT8nj-6" edge="1">
          <mxGeometry relative="1" as="geometry" />
        </mxCell>
        <mxCell id="0ipz06AKfEBxF18oT8nj-2" value="" style="edgeStyle=orthogonalEdgeStyle;rounded=0;orthogonalLoop=1;jettySize=auto;html=1;" parent="1" source="0ipz06AKfEBxF18oT8nj-3" target="0ipz06AKfEBxF18oT8nj-31" edge="1">
          <mxGeometry relative="1" as="geometry" />
        </mxCell>
        <mxCell id="0ipz06AKfEBxF18oT8nj-3" value="Ticket Creation" style="ellipse;whiteSpace=wrap;html=1;" parent="1" vertex="1">
          <mxGeometry x="217.5" y="2640" width="120" height="80" as="geometry" />
        </mxCell>
        <mxCell id="0ipz06AKfEBxF18oT8nj-4" value="" style="edgeStyle=orthogonalEdgeStyle;rounded=0;orthogonalLoop=1;jettySize=auto;html=1;" parent="1" source="0ipz06AKfEBxF18oT8nj-6" target="0ipz06AKfEBxF18oT8nj-8" edge="1">
          <mxGeometry relative="1" as="geometry" />
        </mxCell>
        <mxCell id="0ipz06AKfEBxF18oT8nj-5" value="" style="edgeStyle=orthogonalEdgeStyle;rounded=0;orthogonalLoop=1;jettySize=auto;html=1;" parent="1" source="0ipz06AKfEBxF18oT8nj-6" target="0ipz06AKfEBxF18oT8nj-21" edge="1">
          <mxGeometry relative="1" as="geometry" />
        </mxCell>
        <mxCell id="0ipz06AKfEBxF18oT8nj-6" value="Fetch Emails" style="ellipse;whiteSpace=wrap;html=1;" parent="1" vertex="1">
          <mxGeometry x="210.5" y="2480" width="120" height="80" as="geometry" />
        </mxCell>
        <mxCell id="0ipz06AKfEBxF18oT8nj-7" value="" style="edgeStyle=orthogonalEdgeStyle;rounded=0;orthogonalLoop=1;jettySize=auto;html=1;" parent="1" source="0ipz06AKfEBxF18oT8nj-8" target="0ipz06AKfEBxF18oT8nj-10" edge="1">
          <mxGeometry relative="1" as="geometry" />
        </mxCell>
        <mxCell id="0ipz06AKfEBxF18oT8nj-8" value="Entity Recognition" style="ellipse;whiteSpace=wrap;html=1;" parent="1" vertex="1">
          <mxGeometry x="410.5" y="2480" width="120" height="80" as="geometry" />
        </mxCell>
        <mxCell id="0ipz06AKfEBxF18oT8nj-9" value="" style="edgeStyle=orthogonalEdgeStyle;rounded=0;orthogonalLoop=1;jettySize=auto;html=1;" parent="1" source="0ipz06AKfEBxF18oT8nj-10" target="0ipz06AKfEBxF18oT8nj-14" edge="1">
          <mxGeometry relative="1" as="geometry" />
        </mxCell>
        <mxCell id="0ipz06AKfEBxF18oT8nj-10" value="Classification &amp;amp; Summarization" style="ellipse;whiteSpace=wrap;html=1;" parent="1" vertex="1">
          <mxGeometry x="630" y="2480" width="120" height="80" as="geometry" />
        </mxCell>
        <mxCell id="0ipz06AKfEBxF18oT8nj-11" value="" style="edgeStyle=orthogonalEdgeStyle;rounded=0;orthogonalLoop=1;jettySize=auto;html=1;exitX=0.5;exitY=1;exitDx=0;exitDy=0;" parent="1" source="0ipz06AKfEBxF18oT8nj-17" target="0ipz06AKfEBxF18oT8nj-15" edge="1">
          <mxGeometry relative="1" as="geometry" />
        </mxCell>
        <mxCell id="0ipz06AKfEBxF18oT8nj-12" value="" style="edgeStyle=orthogonalEdgeStyle;rounded=0;orthogonalLoop=1;jettySize=auto;html=1;" parent="1" source="0ipz06AKfEBxF18oT8nj-14" target="0ipz06AKfEBxF18oT8nj-17" edge="1">
          <mxGeometry relative="1" as="geometry" />
        </mxCell>
        <mxCell id="0ipz06AKfEBxF18oT8nj-13" value="" style="edgeStyle=orthogonalEdgeStyle;rounded=0;orthogonalLoop=1;jettySize=auto;html=1;" parent="1" source="0ipz06AKfEBxF18oT8nj-14" target="0ipz06AKfEBxF18oT8nj-24" edge="1">
          <mxGeometry relative="1" as="geometry" />
        </mxCell>
        <mxCell id="0ipz06AKfEBxF18oT8nj-14" value="Data Enrichment" style="ellipse;whiteSpace=wrap;html=1;" parent="1" vertex="1">
          <mxGeometry x="630" y="2640" width="120" height="80" as="geometry" />
        </mxCell>
        <mxCell id="0ipz06AKfEBxF18oT8nj-15" value="Draft Response" style="ellipse;whiteSpace=wrap;html=1;fillColor=#dae8fc;strokeColor=#6c8ebf;" parent="1" vertex="1">
          <mxGeometry x="410.5" y="2800" width="120" height="80" as="geometry" />
        </mxCell>
        <mxCell id="0ipz06AKfEBxF18oT8nj-16" value="" style="curved=1;endArrow=classic;html=1;rounded=0;exitX=0.75;exitY=1;exitDx=0;exitDy=0;entryX=0.25;entryY=1;entryDx=0;entryDy=0;" parent="1" source="0ipz06AKfEBxF18oT8nj-19" target="0ipz06AKfEBxF18oT8nj-19" edge="1">
          <mxGeometry width="50" height="50" relative="1" as="geometry">
            <mxPoint x="200" y="2730" as="sourcePoint" />
            <mxPoint x="80" y="2580" as="targetPoint" />
            <Array as="points">
              <mxPoint x="130" y="2600" />
              <mxPoint x="90" y="2610" />
              <mxPoint x="60" y="2620" />
              <mxPoint x="53" y="2570" />
            </Array>
          </mxGeometry>
        </mxCell>
        <mxCell id="0ipz06AKfEBxF18oT8nj-17" value="Data Complete" style="rhombus;whiteSpace=wrap;html=1;" parent="1" vertex="1">
          <mxGeometry x="430.5" y="2640" width="80" height="80" as="geometry" />
        </mxCell>
        <mxCell id="0ipz06AKfEBxF18oT8nj-18" value="No" style="text;html=1;align=center;verticalAlign=middle;resizable=0;points=[];autosize=1;strokeColor=none;fillColor=none;" parent="1" vertex="1">
          <mxGeometry x="460.5" y="2748" width="40" height="30" as="geometry" />
        </mxCell>
        <mxCell id="0ipz06AKfEBxF18oT8nj-19" value="Periodically Check Emails" style="shape=process;whiteSpace=wrap;html=1;backgroundOutline=1;" parent="1" vertex="1">
          <mxGeometry x="30" y="2490" width="120" height="60" as="geometry" />
        </mxCell>
        <mxCell id="0ipz06AKfEBxF18oT8nj-20" value="" style="edgeStyle=orthogonalEdgeStyle;rounded=0;orthogonalLoop=1;jettySize=auto;html=1;" parent="1" source="0ipz06AKfEBxF18oT8nj-21" target="0ipz06AKfEBxF18oT8nj-22" edge="1">
          <mxGeometry relative="1" as="geometry" />
        </mxCell>
        <mxCell id="0ipz06AKfEBxF18oT8nj-21" value="Download Attachements" style="whiteSpace=wrap;html=1;" parent="1" vertex="1">
          <mxGeometry x="210.5" y="2360" width="120" height="60" as="geometry" />
        </mxCell>
        <mxCell id="0ipz06AKfEBxF18oT8nj-22" value="Extract Text and Images from PDF" style="whiteSpace=wrap;html=1;" parent="1" vertex="1">
          <mxGeometry x="399.5" y="2360" width="120" height="60" as="geometry" />
        </mxCell>
        <mxCell id="0ipz06AKfEBxF18oT8nj-23" value="" style="edgeStyle=orthogonalEdgeStyle;rounded=0;orthogonalLoop=1;jettySize=auto;html=1;exitX=0.596;exitY=1.033;exitDx=0;exitDy=0;exitPerimeter=0;" parent="1" source="0ipz06AKfEBxF18oT8nj-22" target="0ipz06AKfEBxF18oT8nj-8" edge="1">
          <mxGeometry relative="1" as="geometry">
            <mxPoint x="281" y="2490" as="sourcePoint" />
            <mxPoint x="281" y="2430" as="targetPoint" />
          </mxGeometry>
        </mxCell>
        <mxCell id="0ipz06AKfEBxF18oT8nj-24" value="CRM, SQL, Product KB" style="ellipse;whiteSpace=wrap;html=1;" parent="1" vertex="1">
          <mxGeometry x="650" y="2800" width="80" height="80" as="geometry" />
        </mxCell>
        <mxCell id="0ipz06AKfEBxF18oT8nj-25" value="" style="edgeStyle=orthogonalEdgeStyle;rounded=0;orthogonalLoop=1;jettySize=auto;html=1;exitX=0;exitY=0.5;exitDx=0;exitDy=0;entryX=1;entryY=0.5;entryDx=0;entryDy=0;" parent="1" source="0ipz06AKfEBxF18oT8nj-17" target="0ipz06AKfEBxF18oT8nj-3" edge="1">
          <mxGeometry relative="1" as="geometry">
            <mxPoint x="620.5" y="2690" as="sourcePoint" />
            <mxPoint x="520.5" y="2690" as="targetPoint" />
          </mxGeometry>
        </mxCell>
        <mxCell id="0ipz06AKfEBxF18oT8nj-26" value="Yes" style="edgeLabel;html=1;align=center;verticalAlign=middle;resizable=0;points=[];" parent="0ipz06AKfEBxF18oT8nj-25" vertex="1" connectable="0">
          <mxGeometry x="-0.1183" y="-5" relative="1" as="geometry">
            <mxPoint as="offset" />
          </mxGeometry>
        </mxCell>
        <mxCell id="0ipz06AKfEBxF18oT8nj-27" value="" style="endArrow=classic;html=1;rounded=0;exitX=0.5;exitY=1;exitDx=0;exitDy=0;entryX=1;entryY=0;entryDx=0;entryDy=0;" parent="1" source="0ipz06AKfEBxF18oT8nj-15" target="0ipz06AKfEBxF18oT8nj-8" edge="1">
          <mxGeometry width="50" height="50" relative="1" as="geometry">
            <mxPoint x="520" y="2980" as="sourcePoint" />
            <mxPoint x="570" y="2930" as="targetPoint" />
            <Array as="points">
              <mxPoint x="470" y="2930" />
              <mxPoint x="770" y="2930" />
              <mxPoint x="770" y="2690" />
              <mxPoint x="770" y="2450" />
              <mxPoint x="513" y="2450" />
            </Array>
          </mxGeometry>
        </mxCell>
        <mxCell id="0ipz06AKfEBxF18oT8nj-28" value="Mail / WhatsApp /..." style="edgeLabel;html=1;align=center;verticalAlign=middle;resizable=0;points=[];" parent="0ipz06AKfEBxF18oT8nj-27" vertex="1" connectable="0">
          <mxGeometry x="-0.6717" y="3" relative="1" as="geometry">
            <mxPoint as="offset" />
          </mxGeometry>
        </mxCell>
        <mxCell id="0ipz06AKfEBxF18oT8nj-29" value="" style="edgeStyle=orthogonalEdgeStyle;rounded=0;orthogonalLoop=1;jettySize=auto;html=1;" parent="1" source="0ipz06AKfEBxF18oT8nj-31" target="0ipz06AKfEBxF18oT8nj-32" edge="1">
          <mxGeometry relative="1" as="geometry" />
        </mxCell>
        <mxCell id="0ipz06AKfEBxF18oT8nj-30" value="slack / discord / teams" style="edgeLabel;html=1;align=center;verticalAlign=middle;resizable=0;points=[];" parent="0ipz06AKfEBxF18oT8nj-29" vertex="1" connectable="0">
          <mxGeometry x="-0.3" y="2" relative="1" as="geometry">
            <mxPoint as="offset" />
          </mxGeometry>
        </mxCell>
        <mxCell id="0ipz06AKfEBxF18oT8nj-31" value="Fetch Relevant historical data &amp;amp; BP" style="whiteSpace=wrap;html=1;" parent="1" vertex="1">
          <mxGeometry x="217.5" y="2810" width="120" height="60" as="geometry" />
        </mxCell>
        <mxCell id="0ipz06AKfEBxF18oT8nj-32" value="Recommendations to Agent" style="whiteSpace=wrap;html=1;fillColor=#dae8fc;strokeColor=#6c8ebf;" parent="1" vertex="1">
          <mxGeometry x="217.5" y="2950" width="120" height="60" as="geometry" />
        </mxCell>
        <mxCell id="1TZoFbZY8AwqjJc08LRQ-1" value="email, customer name, contract id, date, category, summary, issue category,T&amp;amp;C, Process descriptions, customer history, issue summary" style="text;html=1;align=center;verticalAlign=middle;resizable=0;points=[];autosize=1;strokeColor=none;fillColor=none;" vertex="1" parent="1">
          <mxGeometry x="265" y="3028" width="770" height="30" as="geometry" />
        </mxCell>
      </root>
    </mxGraphModel>
  </diagram>
</mxfile>
